<svg width="16" height="16" viewBox="0 0 16 16" fill="none" xmlns="http://www.w3.org/2000/svg">
<circle cx="8" cy="8" r="8" fill="#3D4252"/>
<g filter="url(#filter0_i_213_2)">
<path d="M7.96214 3.03227C7.52383 4.10678 7.25768 4.81058 6.76983 5.85319C7.06891 6.17027 7.4366 6.53827 8.03306 6.95535C7.39183 6.6915 6.95476 6.42735 6.62799 6.15242C6.00352 7.4555 5.02445 9.31104 3.03906 12.8784C4.59906 11.9778 5.8086 11.4221 6.93568 11.2101C6.88737 11.0023 6.86168 10.7764 6.86352 10.5418L6.86476 10.4926C6.88952 9.49288 7.40968 8.72412 8.02583 8.77627C8.64183 8.82842 9.12152 9.6815 9.09676 10.6813C9.09199 10.8697 9.07014 11.0506 9.03306 11.2186C10.148 11.4367 11.346 11.9898 12.8852 12.8784C12.5817 12.3197 12.3098 11.8161 12.0511 11.3363C11.6435 11.0204 11.2186 10.6095 10.3515 10.1644C10.9475 10.3193 11.3746 10.4984 11.7072 10.6981C9.07676 5.80042 8.86414 5.14919 7.96214 3.03227V3.03226V3.03227Z" fill="url(#paint0_linear_213_2)"/>
</g>
<g filter="url(#filter1_b_213_2)">
<ellipse cx="7.9502" cy="10.15" rx="0.750001" ry="0.75" fill="url(#paint1_linear_213_2)"/>
</g>
<g filter="url(#filter2_bi_213_2)">
<path d="M7.94663 9.18141L10.2147 6.45971C10.4775 6.14442 10.9879 6.38207 10.9158 6.7861L10.641 8.32499H12.0459C12.385 8.32499 12.5703 8.72053 12.3532 8.98106L10.2355 11.5223C9.96348 11.8487 9.43741 11.5819 9.54004 11.1696L9.87163 9.83749H8.25392C7.91478 9.83749 7.72952 9.44194 7.94663 9.18141Z" fill="#484848" fill-opacity="0.25"/>
<path d="M10.3568 9.95826L10.5113 9.33749H9.87163H8.46742L10.3572 7.06974L10.1488 8.23709L10.0438 8.82499H10.641H11.8324L10.1306 10.8671L10.3568 9.95826ZM9.85138 11.2022C9.8514 11.2022 9.85143 11.2021 9.85145 11.2021L9.85138 11.2022Z" stroke="#B4B4B4" stroke-opacity="0.1"/>
</g>
<defs>
<filter id="filter0_i_213_2" x="3.03906" y="3.03226" width="13.8462" height="13.8462" filterUnits="userSpaceOnUse" color-interpolation-filters="sRGB">
<feFlood flood-opacity="0" result="BackgroundImageFix"/>
<feBlend mode="normal" in="SourceGraphic" in2="BackgroundImageFix" result="shape"/>
<feColorMatrix in="SourceAlpha" type="matrix" values="0 0 0 0 0 0 0 0 0 0 0 0 0 0 0 0 0 0 127 0" result="hardAlpha"/>
<feOffset dx="4" dy="4"/>
<feGaussianBlur stdDeviation="5"/>
<feComposite in2="hardAlpha" operator="arithmetic" k2="-1" k3="1"/>
<feColorMatrix type="matrix" values="0 0 0 0 0.85 0 0 0 0 0.85 0 0 0 0 0.85 0 0 0 0.4 0"/>
<feBlend mode="normal" in2="shape" result="effect1_innerShadow_213_2"/>
</filter>
<filter id="filter1_b_213_2" x="-22.7998" y="-20.6" width="61.5" height="61.5" filterUnits="userSpaceOnUse" color-interpolation-filters="sRGB">
<feFlood flood-opacity="0" result="BackgroundImageFix"/>
<feGaussianBlur in="BackgroundImage" stdDeviation="15"/>
<feComposite in2="SourceAlpha" operator="in" result="effect1_backgroundBlur_213_2"/>
<feBlend mode="normal" in="SourceGraphic" in2="effect1_backgroundBlur_213_2" result="shape"/>
</filter>
<filter id="filter2_bi_213_2" x="4.85303" y="3.31424" width="10.5938" height="11.3539" filterUnits="userSpaceOnUse" color-interpolation-filters="sRGB">
<feFlood flood-opacity="0" result="BackgroundImageFix"/>
<feGaussianBlur in="BackgroundImage" stdDeviation="1.5"/>
<feComposite in2="SourceAlpha" operator="in" result="effect1_backgroundBlur_213_2"/>
<feBlend mode="normal" in="SourceGraphic" in2="effect1_backgroundBlur_213_2" result="shape"/>
<feColorMatrix in="SourceAlpha" type="matrix" values="0 0 0 0 0 0 0 0 0 0 0 0 0 0 0 0 0 0 127 0" result="hardAlpha"/>
<feOffset dy="0.5"/>
<feGaussianBlur stdDeviation="1"/>
<feComposite in2="hardAlpha" operator="arithmetic" k2="-1" k3="1"/>
<feColorMatrix type="matrix" values="0 0 0 0 1 0 0 0 0 1 0 0 0 0 1 0 0 0 0.4 0"/>
<feBlend mode="normal" in2="shape" result="effect2_innerShadow_213_2"/>
</filter>
<linearGradient id="paint0_linear_213_2" x1="3" y1="2.99999" x2="12.9" y2="12.9" gradientUnits="userSpaceOnUse">
<stop stop-color="#B924FF"/>
<stop offset="1" stop-color="#FF278F" stop-opacity="0.5"/>
</linearGradient>
<linearGradient id="paint1_linear_213_2" x1="7.2002" y1="9.39999" x2="8.7002" y2="10.9" gradientUnits="userSpaceOnUse">
<stop stop-color="#B924FF"/>
<stop offset="0.9999" stop-color="#FF1187" stop-opacity="0.121875"/>
<stop offset="1" stop-color="#FF278F"/>
</linearGradient>
</defs>
</svg>
