<svg width="24" height="24" viewBox="0 0 24 24" fill="none" xmlns="http://www.w3.org/2000/svg">
<circle cx="12" cy="12" r="12" fill="#3D4252"/>
<circle r="3.15448" transform="matrix(0.673639 0.73906 -0.673639 0.73906 8.25 13.6627)" fill="url(#paint0_linear_38_2601)"/>
<g filter="url(#filter0_bi_38_2601)">
<path d="M11.907 7.62676C11.9476 7.69616 12.0524 7.69616 12.093 7.62676C13.864 4.59673 18 6.01218 18 10.1138C18 13.9628 13.8698 16.8535 12.4629 17.7266C12.176 17.9046 11.824 17.9046 11.5371 17.7266C10.1302 16.8535 6 13.9628 6 10.1138C6 6.01218 10.136 4.59673 11.907 7.62676Z" fill="#B9B9B9" fill-opacity="0.4"/>
<path d="M12.0066 7.5763C12.0062 7.57705 12.0059 7.57733 12.0052 7.57769C12.0043 7.5782 12.0024 7.57881 12 7.57881C11.9976 7.57881 11.9957 7.5782 11.9948 7.57769C11.9941 7.57733 11.9938 7.57705 11.9934 7.5763C11.0839 6.02038 9.55598 5.59646 8.25316 6.1027C6.95352 6.60771 5.9 8.02834 5.9 10.1138C5.9 12.0745 6.95147 13.7828 8.1674 15.1039C9.38448 16.4262 10.7772 17.3727 11.4844 17.8116C11.8036 18.0096 12.1964 18.0096 12.5156 17.8116C13.2228 17.3727 14.6155 16.4262 15.8326 15.1039C17.0485 13.7828 18.1 12.0745 18.1 10.1138C18.1 8.02834 17.0465 6.60771 15.7468 6.1027C14.444 5.59646 12.9161 6.02038 12.0066 7.5763Z" stroke="#B9B9B9" stroke-opacity="0.5" stroke-width="0.2"/>
</g>
<defs>
<filter id="filter0_bi_38_2601" x="2.7998" y="2.79991" width="18.4004" height="18.2602" filterUnits="userSpaceOnUse" color-interpolation-filters="sRGB">
<feFlood flood-opacity="0" result="BackgroundImageFix"/>
<feGaussianBlur in="BackgroundImage" stdDeviation="1.5"/>
<feComposite in2="SourceAlpha" operator="in" result="effect1_backgroundBlur_38_2601"/>
<feBlend mode="normal" in="SourceGraphic" in2="effect1_backgroundBlur_38_2601" result="shape"/>
<feColorMatrix in="SourceAlpha" type="matrix" values="0 0 0 0 0 0 0 0 0 0 0 0 0 0 0 0 0 0 127 0" result="hardAlpha"/>
<feOffset dy="0.5"/>
<feGaussianBlur stdDeviation="1"/>
<feComposite in2="hardAlpha" operator="arithmetic" k2="-1" k3="1"/>
<feColorMatrix type="matrix" values="0 0 0 0 1 0 0 0 0 1 0 0 0 0 1 0 0 0 0.4 0"/>
<feBlend mode="normal" in2="shape" result="effect2_innerShadow_38_2601"/>
</filter>
<linearGradient id="paint0_linear_38_2601" x1="3.33226" y1="2.24981" x2="3.15448" y2="6.30895" gradientUnits="userSpaceOnUse">
<stop stop-color="#B924FF" stop-opacity="0.7"/>
<stop offset="1" stop-color="#FF278F" stop-opacity="0.5"/>
</linearGradient>
</defs>
</svg>
