<svg width="24" height="24" viewBox="0 0 24 24" fill="none" xmlns="http://www.w3.org/2000/svg">
<circle cx="12" cy="12" r="12" fill="#3D4252"/>
<circle cx="9" cy="9" r="3" fill="url(#paint0_linear_38_2999)"/>
<g filter="url(#filter0_bi_38_2999)">
<path d="M16.1461 8H8.85389C8.53539 8 8.23593 8.15172 8.04755 8.40855L6.46264 10.5693C6.19085 10.9398 6.20657 11.4479 6.50076 11.8009L11.7318 18.0781C12.1316 18.5579 12.8684 18.5579 13.2682 18.0781L18.4992 11.8009C18.7934 11.4479 18.8091 10.9398 18.5374 10.5693L16.9524 8.40855C16.7641 8.15172 16.4646 8 16.1461 8Z" fill="#B9B9B9" fill-opacity="0.4"/>
<path d="M16.1461 7.9H8.85389C8.50354 7.9 8.17414 8.0669 7.96692 8.3494L6.38201 10.5101C6.08304 10.9177 6.10033 11.4766 6.42394 11.8649L11.655 18.1422C12.0947 18.6699 12.9053 18.6699 13.345 18.1422L18.5761 11.8649C18.8997 11.4766 18.917 10.9177 18.618 10.5101L17.0331 8.3494C16.8259 8.0669 16.4965 7.9 16.1461 7.9Z" stroke="#B9B9B9" stroke-opacity="0.5" stroke-width="0.2"/>
</g>
<defs>
<filter id="filter0_bi_38_2999" x="3.06885" y="4.8" width="18.8623" height="16.8379" filterUnits="userSpaceOnUse" color-interpolation-filters="sRGB">
<feFlood flood-opacity="0" result="BackgroundImageFix"/>
<feGaussianBlur in="BackgroundImage" stdDeviation="1.5"/>
<feComposite in2="SourceAlpha" operator="in" result="effect1_backgroundBlur_38_2999"/>
<feBlend mode="normal" in="SourceGraphic" in2="effect1_backgroundBlur_38_2999" result="shape"/>
<feColorMatrix in="SourceAlpha" type="matrix" values="0 0 0 0 0 0 0 0 0 0 0 0 0 0 0 0 0 0 127 0" result="hardAlpha"/>
<feOffset dy="0.5"/>
<feGaussianBlur stdDeviation="1"/>
<feComposite in2="hardAlpha" operator="arithmetic" k2="-1" k3="1"/>
<feColorMatrix type="matrix" values="0 0 0 0 1 0 0 0 0 1 0 0 0 0 1 0 0 0 0.4 0"/>
<feBlend mode="normal" in2="shape" result="effect2_innerShadow_38_2999"/>
</filter>
<linearGradient id="paint0_linear_38_2999" x1="6" y1="6" x2="12" y2="12" gradientUnits="userSpaceOnUse">
<stop stop-color="#B924FF" stop-opacity="0.7"/>
<stop offset="1" stop-color="#FF278F" stop-opacity="0.7"/>
</linearGradient>
</defs>
</svg>
